<?xml version="1.0" encoding="utf-8"?>
<!-- Generator: Adobe Illustrator 21.1.0, SVG Export Plug-In . SVG Version: 6.00 Build 0)  -->
<svg version="1.1" id="Layer_1" xmlns="http://www.w3.org/2000/svg" xmlns:xlink="http://www.w3.org/1999/xlink" x="0px" y="0px"
	 viewBox="0 0 100 100" style="enable-background:new 0 0 100 100;" xml:space="preserve">
<style type="text/css">
	.st0{fill:#FEC423;}
</style>
<path id="icon-expertise.svg" class="st0" d="M50,8c23.2,0,42,18.8,42,42S73.2,92,50,92S8,73.2,8,50l0,0C8,26.8,26.8,8,50,8 M50,0
	C22.4,0,0,22.4,0,50s22.4,50,50,50s50-22.4,50-50S77.6,0,50,0L50,0z M64.9,54.3L50,62.1l-14.9-7.9v7.8c0,2.2,1.2,4.3,3.2,5.3
	L50,73.5l11.7-6.2c2-1,3.2-3.1,3.2-5.3V54.3L64.9,54.3z M72.4,46.1l7.5-3.9L50,26.4L20.1,42.1L50,57.8l19.9-10.4L50,41.8L72.4,46.1z
	 M72.4,62.7V46.1l-2.5,1.3v15.3l0,0c0,2.7,2.3,4.9,5,4.9v-2.5C73.5,65.2,72.4,64.1,72.4,62.7L72.4,62.7z"/>
</svg>
